<svg xmlns="http://www.w3.org/2000/svg" width="250" height="236" viewBox="0 0 250 236" version="1.1"><path d="M 109.500 73.356 C 89.723 80.779, 78 97.433, 78 118.105 L 78 126 125 126 L 172 126 172 118.105 C 172 97.036, 159.608 79.918, 139.295 72.929 C 131.206 70.146, 117.530 70.342, 109.500 73.356 M 0.383 134.445 C 0.075 135.247, 0.114 136.376, 0.470 136.952 C 1.463 138.558, 248.193 138.407, 249.800 136.800 C 253.630 132.970, 255.622 133.031, 125.971 133.008 C 17.281 132.988, 0.870 133.176, 0.383 134.445 M 0.079 135.583 C 0.127 136.748, 0.364 136.985, 0.683 136.188 C 0.972 135.466, 0.936 134.603, 0.604 134.271 C 0.272 133.939, 0.036 134.529, 0.079 135.583 M 14.344 142.546 C 14.009 143.420, 14.164 144.564, 14.689 145.089 C 15.250 145.650, 23.860 145.931, 35.572 145.772 C 54.743 145.510, 55.500 145.424, 55.500 143.500 C 55.500 141.575, 54.743 141.490, 35.227 141.229 C 17.468 140.992, 14.878 141.155, 14.344 142.546 M 66.338 142.562 C 66.006 143.427, 66.157 144.557, 66.673 145.073 C 67.247 145.647, 102.512 145.912, 157.555 145.755 C 246.748 145.502, 247.500 145.483, 247.500 143.500 C 247.500 141.517, 246.748 141.498, 157.221 141.245 C 75.893 141.015, 66.881 141.145, 66.338 142.562 M 4.339 150.560 C 4.006 151.426, 4.158 152.558, 4.675 153.075 C 5.247 153.647, 30.793 153.914, 70.057 153.757 C 133.748 153.503, 134.500 153.477, 134.500 151.500 C 134.500 149.523, 133.748 149.497, 69.721 149.243 C 11.548 149.012, 4.881 149.146, 4.339 150.560 M 139.344 150.546 C 139.009 151.420, 139.164 152.564, 139.689 153.089 C 140.250 153.650, 148.860 153.931, 160.572 153.772 C 179.743 153.510, 180.500 153.424, 180.500 151.500 C 180.500 149.575, 179.743 149.490, 160.227 149.229 C 142.468 148.992, 139.878 149.155, 139.344 150.546 M 184.343 150.550 C 184.008 151.421, 184.162 152.562, 184.685 153.085 C 185.250 153.650, 195.567 153.927, 210.068 153.768 C 233.744 153.508, 234.500 153.438, 234.500 151.500 C 234.500 149.561, 233.744 149.492, 209.725 149.232 C 187.878 148.997, 184.879 149.152, 184.343 150.550 M 10.339 158.559 C 10.007 159.425, 10.158 160.558, 10.676 161.076 C 11.248 161.648, 32.983 161.916, 66.059 161.759 C 119.747 161.504, 120.500 161.472, 120.500 159.500 C 120.500 157.527, 119.747 157.496, 65.722 157.241 C 16.629 157.010, 10.881 157.146, 10.339 158.559 M 129.339 158.559 C 129.006 159.425, 129.158 160.558, 129.676 161.076 C 130.248 161.648, 152.744 161.916, 187.058 161.758 C 242.747 161.503, 243.500 161.473, 243.500 159.500 C 243.500 157.527, 242.747 157.497, 186.722 157.242 C 135.813 157.010, 129.881 157.146, 129.339 158.559 M 36.339 166.559 C 36.006 167.426, 36.158 168.558, 36.675 169.075 C 37.248 169.648, 60.316 169.915, 95.558 169.758 C 152.747 169.503, 153.500 169.474, 153.500 167.500 C 153.500 165.526, 152.747 165.497, 95.222 165.242 C 42.951 165.010, 36.881 165.146, 36.339 166.559 M 169.341 166.555 C 169.007 167.424, 169.160 168.560, 169.680 169.080 C 170.249 169.649, 185.129 169.921, 207.063 169.763 C 242.746 169.505, 243.500 169.459, 243.500 167.500 C 243.500 165.541, 242.746 165.495, 206.723 165.238 C 173.977 165.004, 169.880 165.148, 169.341 166.555 M 12.341 174.554 C 12.007 175.423, 12.160 176.560, 12.680 177.080 C 13.249 177.649, 27.558 177.921, 48.563 177.763 C 82.746 177.506, 83.500 177.457, 83.500 175.500 C 83.500 173.543, 82.746 173.494, 48.224 173.237 C 16.839 173.003, 12.880 173.149, 12.341 174.554 M 99.339 174.559 C 99.007 175.425, 99.158 176.558, 99.676 177.076 C 100.248 177.648, 121.983 177.916, 155.059 177.759 C 208.747 177.504, 209.500 177.472, 209.500 175.500 C 209.500 173.527, 208.747 173.496, 154.722 173.241 C 105.629 173.010, 99.881 173.146, 99.339 174.559 M 21.340 182.555 C 21.007 183.424, 21.160 184.560, 21.679 185.079 C 22.249 185.649, 37.890 185.920, 61.062 185.762 C 98.746 185.505, 99.500 185.461, 99.500 183.500 C 99.500 181.539, 98.746 181.495, 60.723 181.238 C 26.160 181.005, 21.880 181.148, 21.340 182.555 M 120.339 182.559 C 120.006 183.425, 120.158 184.558, 120.676 185.076 C 121.248 185.648, 143.744 185.916, 178.058 185.758 C 233.747 185.503, 234.500 185.473, 234.500 183.500 C 234.500 181.527, 233.747 181.497, 177.722 181.242 C 126.813 181.010, 120.881 181.146, 120.339 182.559 M 45.338 190.561 C 45.006 191.426, 45.157 192.557, 45.673 193.073 C 46.247 193.647, 77.510 193.913, 126.056 193.756 C 204.748 193.502, 205.500 193.481, 205.500 191.500 C 205.500 189.519, 204.748 189.498, 125.721 189.244 C 53.928 189.014, 45.881 189.145, 45.338 190.561 M 28.344 200.546 C 28.009 201.420, 28.164 202.564, 28.689 203.089 C 29.250 203.650, 37.860 203.931, 49.572 203.772 C 68.743 203.510, 69.500 203.424, 69.500 201.500 C 69.500 199.575, 68.743 199.490, 49.227 199.229 C 31.468 198.992, 28.878 199.155, 28.344 200.546 M 82.338 200.560 C 82.006 201.426, 82.157 202.557, 82.674 203.074 C 83.247 203.647, 110.317 203.914, 152.057 203.757 C 219.748 203.503, 220.500 203.478, 220.500 201.500 C 220.500 199.522, 219.748 199.497, 151.721 199.243 C 89.916 199.012, 82.881 199.146, 82.338 200.560 M 50.342 208.551 C 50.008 209.422, 50.162 210.562, 50.684 211.084 C 51.250 211.650, 62.326 211.926, 78.067 211.767 C 103.744 211.508, 104.500 211.443, 104.500 209.500 C 104.500 207.556, 103.745 207.492, 77.725 207.234 C 54.061 206.998, 50.879 207.151, 50.342 208.551 M 120.340 208.557 C 120.007 209.424, 120.159 210.559, 120.678 211.078 C 121.249 211.649, 138.983 211.918, 165.561 211.761 C 208.746 211.504, 209.500 211.466, 209.500 209.500 C 209.500 207.534, 208.747 207.496, 165.223 207.240 C 125.665 207.007, 120.881 207.147, 120.340 208.557 M 72.340 216.557 C 72.007 217.424, 72.159 218.559, 72.678 219.078 C 73.249 219.649, 90.983 219.918, 117.561 219.761 C 160.746 219.504, 161.500 219.466, 161.500 217.500 C 161.500 215.534, 160.747 215.496, 117.223 215.240 C 77.665 215.007, 72.881 215.147, 72.340 216.557 M 66.342 224.552 C 66.008 225.422, 66.161 226.561, 66.683 227.083 C 67.250 227.650, 79.276 227.924, 96.566 227.766 C 124.745 227.507, 125.500 227.448, 125.500 225.500 C 125.500 223.552, 124.745 223.493, 96.224 223.235 C 70.290 223, 66.880 223.150, 66.342 224.552 M 143.343 224.550 C 143.008 225.421, 143.162 226.562, 143.685 227.085 C 144.250 227.650, 154.567 227.927, 169.068 227.768 C 192.744 227.508, 193.500 227.438, 193.500 225.500 C 193.500 223.561, 192.744 223.492, 168.725 223.232 C 146.878 222.997, 143.879 223.152, 143.343 224.550 M 88.340 232.555 C 88.007 233.424, 88.160 234.560, 88.679 235.079 C 89.249 235.649, 104.890 235.920, 128.062 235.762 C 165.746 235.505, 166.500 235.461, 166.500 233.500 C 166.500 231.539, 165.746 231.495, 127.723 231.238 C 93.160 231.005, 88.880 231.148, 88.340 232.555" stroke="none" fill="#1c1c24" fill-rule="evenodd"/><path d="M 113.009 1.090 C 70.346 5.195, 32.500 31.186, 13.155 69.667 C 6.009 83.881, 1.296 100.988, 0.321 116.250 L -0.302 126 38.849 126 L 78 126 78 118.105 C 78 91.401, 98.356 71, 125 71 C 151.650 71, 172 91.401, 172 118.117 L 172 126.023 211.250 125.762 L 250.500 125.500 250.796 118.163 C 250.994 113.246, 250.746 111.039, 250.046 111.472 C 249.413 111.863, 248.999 111.008, 248.999 109.309 C 248.997 105.561, 244.597 87.840, 242.012 81.167 C 227.154 42.822, 194.463 13.923, 154.842 4.109 C 147.524 2.297, 127.184 -0.241, 123 0.137 C 122.175 0.212, 117.679 0.640, 113.009 1.090 M 0.336 119 C 0.336 123.125, 0.513 124.813, 0.728 122.750 C 0.944 120.688, 0.944 117.313, 0.728 115.250 C 0.513 113.188, 0.336 114.875, 0.336 119" stroke="none" fill="#ee7d83" fill-rule="evenodd"/></svg>